<svg width="32" height="32" viewBox="0 0 32 32" fill="none" xmlns="http://www.w3.org/2000/svg">
<path d="M26.6663 10.6667C26.6663 11.403 26.0694 12 25.333 12H19.9997V28C19.9997 28.7364 19.4027 29.3333 18.6663 29.3333C17.93 29.3333 17.333 28.7364 17.333 28V22.6667C17.333 21.9303 16.7361 21.3333 15.9997 21.3333C15.2633 21.3333 14.6663 21.9303 14.6663 22.6667V28C14.6663 28.7364 14.0694 29.3333 13.333 29.3333C12.5966 29.3333 11.9997 28.7364 11.9997 28V12H6.66634C5.92996 12 5.33301 11.403 5.33301 10.6667C5.33301 9.93028 5.92996 9.33332 6.66634 9.33332H25.333C26.0694 9.33332 26.6663 9.93028 26.6663 10.6667ZM15.9997 2.66666C16.7069 2.66666 17.3852 2.94761 17.8853 3.4477C18.3854 3.9478 18.6663 4.62608 18.6663 5.33332C18.6663 6.04057 18.3854 6.71884 17.8853 7.21894C17.3852 7.71904 16.7069 7.99999 15.9997 7.99999C15.2924 7.99999 14.6142 7.71904 14.1141 7.21894C13.614 6.71884 13.333 6.04057 13.333 5.33332C13.333 3.85332 14.5197 2.66666 15.9997 2.66666Z" fill="#E72D2D"/>
</svg>
